PathFileType	4	(X/Y/Z)	0_1_34_p1_0-240.trc
DataRate	CameraRate	NumFrames	NumMarkers	Units	OrigDataRate	OrigDataStartFrame	OrigNumFrames
60	60	6	27	m	60	30	240
Frame#	Time	RHip			RKnee			RAnkle			RBigToe			RSmallToe			RHeel			LHip			LKnee			LAnkle			LBigToe			LSmallToe			LHeel			Neck			Head			Nose			RShoulder			RElbow			RWrist			RThumb			RIndex			RPinky			LShoulder			LElbow			LWrist			LThumb			LIndex			LPinky		
		X1	Y1	Z1	X2	Y2	Z2	X3	Y3	Z3	X4	Y4	Z4	X5	Y5	Z5	X6	Y6	Z6	X7	Y7	Z7	X8	Y8	Z8	X9	Y9	Z9	X10	Y10	Z10	X11	Y11	Z11	X12	Y12	Z12	X13	Y13	Z13	X14	Y14	Z14	X15	Y15	Z15	X16	Y16	Z16	X17	Y17	Z17	X18	Y18	Z18	X19	Y19	Z19	X20	Y20	Z20	X21	Y21	Z21	X22	Y22	Z22	X23	Y23	Z23	X24	Y24	Z24	X25	Y25	Z25	X26	Y26	Z26	X27	Y27	Z27
31	0.5166666666666667	0.13397632444723628	0.2171041775567884	0.053770248064384525	0.13273395324978293	0.16677474015977717	-0.3077865041901739	0.16361881067116082	0.20270670833728346	-0.7413644183383143	0.18588023821091815	0.06875453309915625	-0.7916719150951395	0.10502640072604175	0.08250517511633407	-0.7877219183950083	0.16942766722891256	0.2444372671958274	-0.8057673972146236	0.34052183460170155	0.18352290091044446	0.06569643181869951	0.34808752573311136	0.18964895129932732	-0.3370227814863003	0.33944628169516533	0.2651278649210114	-0.7737437663160138	0.30136509530351796	0.07513930604640925	-0.7989103122730271	0.3626803129918866	0.09622924730575914	-0.7975137892540255	0.3280346872142932	0.29412965480493	-0.8424746822098427	0.2313906321647384	0.2504755340567052	0.5419942820753524	0.19774209416904728	0.20540780331931116	0.7946388308712261	0.2035217244973141	0.14924154808467824	0.6723683309879178	0.06648278355522103	0.2605210711644415	0.4766457948211112	0.028774025714329163	0.22063872709127857	0.23113716497910572	0.14220542281873327	0.041723915607534294	0.05650676284774012	0.2497159543976799	0.039031042485584394	-0.0031821824453007394	0.25072200927922067	0.03251996326060123	-0.03493446182919918	0.22723419958492613	-0.0013383771710685987	-0.010759066125554589	0.37636478323163886	0.25405998010492814	0.48447306188279615	0.43981721044026895	0.18598285325302338	0.22101805341151384	0.35054580097453775	0.09672365015416831	0.03724310967546151	0.2718534495255172	0.060121439129588866	0.010147574362110862	0.27096246645310457	0.06797683189297081	-0.057097982832157924	0.2916521344520275	0.11360810405005131	-0.09159148266635352
32	0.5333333333333333	0.13410807290180035	0.20170151672502934	0.06933465772254452	0.1345420987239621	0.16412297803625228	-0.3193486898641099	0.16336173416544142	0.20111212942536452	-0.7448570756357322	0.1859197936472479	0.0693235087596532	-0.7920753747711541	0.10501126918535685	0.08266264200600244	-0.787972759976901	0.16942059124992392	0.24422324197780643	-0.8056091640761497	0.3408338195982283	0.18264815979562204	0.06968005838473884	0.3483807336232524	0.18952792789908388	-0.3363196443444861	0.33851355511480397	0.2662433071179929	-0.7696099990407401	0.3073330405356502	0.08801477257206175	-0.8090223364325307	0.3619587274911514	0.09714676017101383	-0.7937835209460546	0.32654100414637105	0.29543421569925016	-0.837716421719027	0.23142537191573082	0.2500033790887954	0.5419557504160794	0.19585873702831544	0.1816354543961513	0.7947615907887736	0.203370908776176	0.14878622174988268	0.665936574792403	0.06642879409897913	0.2601041644189078	0.476670577558035	0.029052307283517598	0.21886617051715707	0.22444281534437197	0.1273371739976862	0.05355940024189453	0.051330554960055216	0.22460612901901367	-0.00996260654693892	0.009921592346320458	0.22434472177195802	-0.01521651684046138	-0.019597562866522644	0.20051056340310638	0.020692304689589103	-0.03969679402612823	0.3708625892831126	0.24155348635978585	0.48759418040183056	0.4399872629457545	0.1860036952360036	0.22469445395483878	0.3563950725892446	0.07342478552449877	0.04331204981640266	0.3014664807557794	0.06231448570945747	-7.122342984026869e-05	0.2959279597951751	0.06808161643913854	-0.06525728798868477	0.3301813692131617	0.14367543692079698	-0.10273607738808756
33	0.55	0.13913684633977158	0.1990909198152991	0.08343503837107644	0.13637638149797277	0.16206071658230406	-0.3195507588482823	0.1642690230202168	0.19993315825059937	-0.7397922556458075	0.18597622124752972	0.06878658190593578	-0.7919319091726691	0.1002570130919479	0.08601844258323453	-0.7947786858675693	0.16953966363225556	0.24421582958244073	-0.8055777537401861	0.34194474970599686	0.1806162112734586	0.08323427545221403	0.35083131411971286	0.1901089482139557	-0.3246316867820601	0.3397123779684834	0.27769789615736445	-0.7771471038526875	0.3100070664962212	0.07665334494702078	-0.8009043631211116	0.3744914371495441	0.12355713451321329	-0.8139491155536389	0.3260293869783924	0.2961176013435078	-0.8382307969535886	0.23497567619731333	0.24710514685403195	0.5388689426567826	0.195827982535822	0.1812751802119882	0.7947870013202669	0.20520508631881285	0.12434837091831204	0.670433706441584	0.070560246378993	0.2580542292457202	0.47711725345409284	0.03328103056636107	0.23127260294783045	0.2199554939556602	0.09582971507440101	0.06642068364743713	0.03872240595057588	0.2076629535258963	-0.008406772909606978	0.0012530856074795729	0.19390125065240948	-0.010260584743280178	-0.02107640492710046	0.17015683456172767	0.046868008884158256	-0.05570500007235069	0.3707539151024835	0.24130436578298792	0.48772778064789046	0.4388051325742289	0.19516089388564387	0.22877620195396253	0.3699630281036776	0.07819749571890844	0.033017850565986634	0.3307190656165726	0.11384740232500183	-0.04556444196244382	0.33519325986427456	0.09265670142731407	-0.0800353038829794	0.35201052251832504	0.11549864668746586	-0.0952003139654672
34	0.5666666666666667	0.14029081712777622	0.2004939706613087	0.09446126160776692	0.13659828906042776	0.15985988197072382	-0.315137397645226	0.16314701607074736	0.19940216253953041	-0.7486372628513092	0.18507535587686821	0.06905928843258131	-0.796799217407889	0.10726277137157207	0.0706370178617823	-0.7880541562259195	0.16587133802051326	0.25615557591935134	-0.8192692179868589	0.35159159415680336	0.19390933157659598	0.08581743195415385	0.35406319943990905	0.18775539536911054	-0.3240337766744055	0.3395252486746517	0.2762818407362852	-0.780589464323601	0.31003688606894986	0.0762809212105608	-0.8006925480505456	0.3745164444186337	0.12363005432294151	-0.8140754577481105	0.3251717231282742	0.29676502472460486	-0.8449638255355855	0.2349752671916971	0.2467084877395122	0.5385246105183388	0.19587622031085017	0.1808557783544041	0.7947499485301989	0.2051083349250441	0.12299404771668918	0.663460649336191	0.06643147975936997	0.24380872257455224	0.4804884067805093	0.0333058187582152	0.23171982010914877	0.2197067292258235	0.08127865791815116	0.09250164749594655	0.031445026717271916	0.17607505690296363	0.029367446414548238	-0.01909262494433472	0.17053458476611588	0.028597656117119355	-0.043563490873305445	0.15567878534956056	0.04073598495776234	-0.0686987000301013	0.3707613841997399	0.24131868493969225	0.48779258490633465	0.4389466121335347	0.19512616122341875	0.22901063775897842	0.39500910984194604	0.08336042216527138	0.029677897072426008	0.34233760755914133	0.11435024996331848	-0.059025900841080746	0.35308810847679034	0.06775893034176443	-0.07260074457858338	0.40698250975108075	0.0916893954871303	-0.08940659895196452
35	0.5833333333333334	0.14081957216684388	0.2174484648191393	0.08727667093560754	0.13010839375526942	0.1716022465665903	-0.2984047263928952	0.1635270742248904	0.20064934045619115	-0.7449823158212261	0.18548262399385085	0.06824487039659276	-0.8014509320889935	0.10278225689143804	0.07353101288800093	-0.7902273301668267	0.16919425241334346	0.2427464301521912	-0.810201988298082	0.34807479203334557	0.19905252657361017	0.0924261547511888	0.3473544020299205	0.1847791435649727	-0.28495661342618295	0.3397294803833502	0.2778124001577332	-0.7771610350889302	0.309827289357377	0.07620953009524375	-0.8006356076187625	0.36835265251920085	0.11016516543858315	-0.8038686695287123	0.32480424354112475	0.29686867396272776	-0.8449803222047936	0.2348962587356378	0.24485516415532707	0.5315017879764753	0.19582081311149208	0.1799502877294469	0.7917123458613938	0.20748939277806927	0.1117698927313586	0.6585010214289129	0.07027988850472525	0.2579493114067168	0.47319900965964234	0.029750049964696962	0.24413482068002776	0.21537004639739699	0.08041939909132777	0.09200162418889642	0.027648577534191386	0.16421056506407977	0.04990417727445062	-0.04190068720007009	0.1561400530255407	0.037981973492482085	-0.05182327257835077	0.14789811024782068	0.05375472703883634	-0.07892147806737645	0.37078025117194646	0.24132781076836374	0.4878565161993804	0.44525257539158986	0.1978559806334691	0.2287030062632677	0.42648040713910856	0.1282892327123934	0.008946569856949383	0.3535104103798346	0.10971777480971376	-0.07055897703822855	0.3646777324274458	0.06475424190656666	-0.07566322351654163	0.43281437583849547	0.1263589430614242	-0.10363676276121218
36	0.6	0.1356656154572341	0.22161762507521776	0.08509847590357056	0.1260841994486903	0.17578058471235872	-0.2990376930988277	0.16371389294356947	0.20009238100808005	-0.7444898409872737	0.18559127666656575	0.06969799803165398	-0.7979613298184949	0.09935462162579292	0.08539763700101757	-0.7985581716551174	0.16953499248108264	0.24188453207720292	-0.8093463478576614	0.3424788166532123	0.18670332737100204	0.09723748497448616	0.349525957114257	0.17673700869850287	-0.3103435344599824	0.33971875647368005	0.2777444030493615	-0.7770751063842274	0.31213499348253904	0.08308275513579419	-0.8156790737689011	0.3689573760132231	0.10770418873582821	-0.8115812387358395	0.32509648683664966	0.29592020071622843	-0.8402795828382251	0.23472888145473794	0.24486024812566537	0.5272238439987141	0.19928058065471416	0.17837020318325456	0.7919973981472131	0.20750035566149247	0.11085887195516034	0.6553373114066235	0.07027815366421963	0.2582378066914789	0.4729078599737976	0.025820580358260483	0.24392303631153361	0.21183450496378084	0.07270945136304148	0.10541145782695552	0.017580569677573	0.15791521811300394	0.06105141066780063	-0.053548961388126114	0.14827372655297702	0.03829693093868354	-0.06331487452297765	0.11647833543243116	0.08442297048230116	-0.09647975961392366	0.37077174050457545	0.24094577930880268	0.4877589512356958	0.4435078644772244	0.21042497608015923	0.22804487721125424	0.4333198985258691	0.14312031648624668	0.006794882665190966	0.35618108525392767	0.09924720734632672	-0.06913956911021325	0.393628717617413	0.09493105055138508	-0.08823803731868828	0.44311912599413084	0.13748322285730077	-0.10834339946846253
